<?xml version="1.0" encoding="utf-8"?><svg xmlns="http://www.w3.org/2000/svg" width="20" height="15"><defs><clipPath id="a" clipPathUnits="userSpaceOnUse"><path d="M0 0h612v792H0Z"/></clipPath></defs><g clip-path="url(#a)" transform="matrix(1.70047 0 0 -1.70047 -891.241 65.433)"><path fill="#fab40a" d="M528.55 29.86a.23.23 0 0 0-.104.024l-1.397.729-1.397-.729a.237.237 0 0 0-.231.014.196.196 0 0 0-.085.202l.31 1.466-1.172 1.018a.193.193 0 0 0-.06.209.212.212 0 0 0 .18.138l1.588.179.67 1.356a.217.217 0 0 0 .197.117c.083 0 .16-.046.195-.117l.672-1.356 1.587-.179a.21.21 0 0 0 .179-.138.193.193 0 0 0-.057-.209l-1.173-1.018.309-1.466a.197.197 0 0 0-.084-.202.233.233 0 0 0-.127-.038"/><path fill="#fff" d="m527.048 34.381.723-1.458 1.706-.192-1.26-1.094.332-1.576-1.5.782-1.501-.782.332 1.576-1.26 1.094 1.705.192zm0 .402a.434.434 0 0 1-.39-.233l-.621-1.254-1.469-.166a.423.423 0 0 1-.358-.275.388.388 0 0 1 .117-.42l1.083-.94-.285-1.357a.387.387 0 0 1 .17-.402.447.447 0 0 1 .463-.027l1.29.673 1.292-.673a.458.458 0 0 1 .463.027.387.387 0 0 1 .169.402l-.285 1.357 1.083.94a.388.388 0 0 1 .117.42.423.423 0 0 1-.358.275l-1.469.166-.62 1.254a.434.434 0 0 1-.392.233"/><path fill="#fab40a" d="M534.443 29.86a.23.23 0 0 0-.104.024l-1.397.729-1.396-.729a.237.237 0 0 0-.23.014.194.194 0 0 0-.086.202l.31 1.466-1.173 1.018a.188.188 0 0 0-.057.209.207.207 0 0 0 .178.138l1.586.179.672 1.356a.219.219 0 0 0 .196.117c.085 0 .16-.046.195-.117l.673-1.356 1.586-.179a.208.208 0 0 0 .18-.138.192.192 0 0 0-.058-.209l-1.172-1.018.308-1.466a.197.197 0 0 0-.084-.202.233.233 0 0 0-.127-.038"/><path fill="#fff" d="m532.942 34.381.723-1.458 1.705-.192-1.259-1.094.332-1.576-1.5.782-1.502-.782.332 1.576-1.259 1.094 1.705.192zm0 .402a.434.434 0 0 1-.39-.233l-.622-1.254-1.468-.166a.423.423 0 0 1-.358-.275.388.388 0 0 1 .117-.42l1.083-.94-.285-1.357a.387.387 0 0 1 .17-.402.458.458 0 0 1 .463-.027l1.29.673 1.291-.673a.458.458 0 0 1 .463.027.387.387 0 0 1 .17.402l-.286 1.357 1.083.94a.388.388 0 0 1 .117.42.423.423 0 0 1-.358.275l-1.468.166-.62 1.254a.434.434 0 0 1-.392.233"/><path fill="#fab40a" d="M528.495 33.556a.233.233 0 0 0-.127.038.196.196 0 0 0-.084.201l.308 1.467-1.172 1.018a.193.193 0 0 0-.057.21.21.21 0 0 0 .179.137l1.586.18.673 1.355c.035.071.11.117.195.117.084 0 .16-.046.194-.117l.673-1.356 1.585-.179a.208.208 0 0 0 .18-.138.192.192 0 0 0-.058-.209l-1.172-1.018.31-1.467a.196.196 0 0 0-.085-.2.225.225 0 0 0-.23-.014l-1.398.728-1.396-.728a.219.219 0 0 0-.105-.025"/><path fill="#fff" d="m529.995 38.078.723-1.459 1.705-.191-1.259-1.094.332-1.577-1.5.783-1.502-.782.332 1.575-1.259 1.095 1.705.192zm0 .401a.434.434 0 0 1-.39-.232l-.622-1.255-1.468-.165a.423.423 0 0 1-.358-.275.388.388 0 0 1 .117-.42l1.083-.94-.285-1.357a.387.387 0 0 1 .17-.402.458.458 0 0 1 .463-.027l1.29.672 1.291-.672a.458.458 0 0 1 .463.027.387.387 0 0 1 .17.402l-.286 1.357 1.083.94a.388.388 0 0 1 .117.42.423.423 0 0 1-.358.275l-1.468.166-.62 1.253a.434.434 0 0 1-.392.233"/></g></svg>