<?xml version="1.0" encoding="utf-8"?><svg xmlns="http://www.w3.org/2000/svg" width="16" height="14" fill="none"><path fill-rule="evenodd" clip-rule="evenodd" d="M8.197.139a.21.21 0 00-.396 0L6.072 5.038a.21.21 0 01-.197.142H.43a.21.21 0 00-.12.38l2.095 1.465a.338.338 0 00-.262.18c-.09.155-.042.29-.006.34l2.187 2.536a.068.068 0 00.028.016l-.166.498c-.145-.08-.284-.122-.54-.12l.01-.086c.05-.412.14-1.13-.983-1.767l-.019-.004c-.51-.124-1.257-.308-1.924.695l-.019.033c-.098.168-.228.39-.3 1a.543.542 0 01-.045.264 1.123 1.123 0 00-.07.267c.01.135.115.425.44.511.326.087 1.847.54 2.567.757.077.02.203.063.323.128l-.483 1.449a.21.21 0 00.319.238l4.42-2.992a.21.21 0 01.238 0l4.418 2.994a.21.21 0 00.32-.24l-.747-2.24a1.898 1.898 0 001.67 1.032c1.053.003 1.91-.881 1.915-1.975.003-1.093-.849-1.984-1.903-1.986a1.859 1.857 0 00-1.19.427l.023-.042.13-.205c.238-.38.676-1.074.734-1.104.327-.182.21-.412.046-.563l2.154-1.503a.21.21 0 00-.12-.382h-5.443a.21.21 0 01-.198-.141zm3.472 10.02l.233.7a2.064 2.063 0 01.014-.736l-.014.026c-.038.03-.15.028-.232.01z" fill="#000"/><path d="M15.452 10.522c-.001.953-.75 1.723-1.672 1.722-.92-.004-1.666-.778-1.663-1.732.002-.951.752-1.722 1.674-1.72.92.002 1.665.777 1.661 1.731z" fill="#fff"/><path d="M14.464 10.536c-.003.414-.313.748-.697.745-.381 0-.689-.336-.688-.75 0-.415.31-.75.695-.748.38 0 .69.337.689.753z" fill="#000"/><path d="M9.325 7.538c-.077.093-.175.07-.156.166.013.054.078.12.23.264l.374.326c.175.142.138.093.174-.093.01-.058.945-1.01 1.064-1.107-.776 2.08-.94 1.95.965.79l-.747 1.097c-.02.041-.076.093-.183.2-.018.019-.064.103.122.253l.558.457c.082.067.065.015.062-.123 0-.07 1.321-2.198 1.404-2.324.03-.046.062-.08.13-.087.138-.004.04-.048-.113-.17l-.394-.325c-.07-.056-.377-.07-.512.01-1 .578-.746.787-.394-.304.07-.272.035-.397-.316-.705l-.28-.249c-.06-.046-.087-.107-.098.097a.368.368 0 01-.114.138l-.195.19zm.25-1.324c-.004 1.003-.786 1.815-1.751 1.81-.962-.003-1.74-.817-1.737-1.82.002-1.002.785-1.815 1.75-1.81.96.003 1.74.82 1.737 1.82z" fill="#fff"/><path d="M8.522 6.226c-.001.43-.318.78-.71.778-.39 0-.705-.352-.705-.782.003-.43.32-.78.71-.778.39 0 .705.35.705.782z" fill="#000"/><path d="M4.395 9.727L2.296 7.289c.003-.033.025-.033.035-.03.396-.02.312-.19.618-.525.9-.983 2.24-.662 2.298.59.705-.03 1.028.207 1.303.507.085.1.17.12.213.135.104.027.093.037.036.087l-.115.096c-.136.116-.437.412-.605.516-.322.155-.216-.092-.465-.197-.202-.123-.405-.128-.61-.09-.243.086-.281.04-.075.259l.433.46c.058.069.214-.004.12.096l-.643.564c-.172.147-.318.114-.444-.033z" fill="#fff"/><path d="M4.296 7.11c-.177-.206-.514-.253-.803.031.106.163.529.604.726.805.386-.345.373-.536.077-.836z" fill="#000"/><path d="M4.067 10.842c.011.52-.137.851-.276 1.25-.27-.351-2.173-.653-3.08-1.025-.211-.086-.162-.191-.106-.269.075-.086.05-.55.093-.71.668-2.526 3.46-.976 2.58.605.23.073.54.135.79.15z" fill="#fff"/><path d="M2.195 9.512c-.59-.073-.726.42-.784.608.265.112 1.15.351 1.15.351.073-.242.168-.906-.366-.959z" fill="#000"/></svg>