<?xml version="1.0" encoding="utf-8"?><svg xmlns="http://www.w3.org/2000/svg" width="24" height="15"><path fill="#e5bd28" d="M8.082 0l1.903 5.704h6.021l-4.86 3.592L12.946 15l-4.863-3.486L3.224 15 5.02 9.296.16 5.704h6.021z"/><path d="M20.41 12.724q.894 0 1.375-.497.497-.498.497-1.343 0-.448-.149-.796-.15-.348-.398-.63-.232-.281-.547-.513-.315-.232-.646-.464-.381-.266-.796-.564-.414-.298-.762-.696-.332-.398-.547-.928-.216-.53-.216-1.243 0-.696.233-1.26.248-.563.662-.961.431-.398 1.012-.614Q20.724 2 21.404 2q.663 0 1.226.166.564.165.945.398l-.464 1.176q-.348-.232-.762-.348-.398-.132-.846-.132-.812 0-1.31.447-.48.431-.48 1.276 0 .465.15.813.165.348.414.63.265.281.596.513.348.232.73.48.38.25.779.548.397.298.712.696.332.381.53.912.216.513.216 1.226 0 .647-.199 1.227-.199.58-.63 1.027-.414.431-1.06.696-.63.249-1.492.249-.796 0-1.392-.182-.597-.183-1.061-.481l.464-1.193q.431.265.879.43.464.15 1.06.15z" aria-label="S"/></svg>